<?xml version="1.0" encoding="iso-8859-1"?>
<!-- Uploaded to: SVG Repo, www.svgrepo.com, Generator: SVG Repo Mixer Tools -->
<!DOCTYPE svg PUBLIC "-//W3C//DTD SVG 1.1//EN" "http://www.w3.org/Graphics/SVG/1.1/DTD/svg11.dtd">
<svg fill="#000000" version="1.1" id="Capa_1" xmlns="http://www.w3.org/2000/svg" xmlns:xlink="http://www.w3.org/1999/xlink" 
	 width="800px" height="800px" viewBox="0 0 71.861 71.861"
	 xml:space="preserve">
<g>
	<g>
		<path d="M67.546,0H4.316c-2.16,0-3.917,1.757-3.917,3.917v64.028c0,2.16,1.757,3.916,3.917,3.916h63.229
			c2.158,0,3.916-1.756,3.916-3.916V3.918C71.464,1.757,69.706,0,67.546,0z M48.952,31.762V29.27c0-0.279,0.226-0.504,0.504-0.504
			h3.738c0.279,0,0.504,0.226,0.506,0.503v9.911c0,0.279-0.226,0.504-0.504,0.504h-3.738c-0.279,0-0.506-0.225-0.506-0.504v-2.4
			h-4.947c-0.135,0-0.262-0.053-0.356-0.148l-3.874-3.874c-1-0.184-3.813-2.301-5.449-3.587c-0.12-0.093-0.19-0.236-0.193-0.389
			c-0.002-0.152,0.064-0.298,0.181-0.395l5.586-4.658c0.117-0.096,0.271-0.136,0.42-0.107c0.149,0.029,0.277,0.123,0.35,0.257
			c0.584,1.094,2.492,4.733,2.492,5.632c0,0.056-0.002,0.113-0.006,0.168l2.084,2.083L48.952,31.762L48.952,31.762z M10.338,34.258
			c-1.386,0-2.621-0.679-3.671-2.018c-0.088-0.113-0.124-0.258-0.099-0.399c0.024-0.141,0.108-0.265,0.23-0.341l32.615-20.272
			c0.147-0.091,0.33-0.101,0.487-0.025c0.224,0.108,0.49,0.399,0.502,0.861c0.05,1.978-4.937,5.748-14.821,11.206
			c-0.298,0.766-1.547,3.614-4.068,4.791c-2.633,1.228-8.515,5.321-8.574,5.362C12.911,33.446,11.821,34.258,10.338,34.258z
			 M13.51,33.647c0.03-0.137,0.115-0.257,0.237-0.329l7.206-4.258c0.241-0.14,0.548-0.063,0.689,0.175l1.622,2.703
			c0.144,0.238,0.068,0.546-0.169,0.69l-6.938,4.235c-0.082,0.049-0.172,0.072-0.262,0.072c-0.16,0-0.315-0.076-0.413-0.213
			l-1.892-2.68C13.51,33.929,13.479,33.785,13.51,33.647z M21.145,63.574c1.026,0,2.072-0.213,2.75-0.543l0.348,1.337
			c-0.619,0.311-1.858,0.62-3.446,0.62c-3.68,0-6.449-2.324-6.449-6.604c0-4.086,2.77-6.856,6.816-6.856
			c1.627,0,2.654,0.35,3.1,0.582l-0.407,1.375c-0.639-0.311-1.549-0.543-2.634-0.543c-3.061,0-5.094,1.957-5.094,5.385
			C16.128,61.523,17.969,63.574,21.145,63.574z M24.876,33.049c-0.136-0.033-0.25-0.12-0.318-0.241l-2.163-3.784
			c-0.079-0.138-0.088-0.307-0.023-0.453s0.195-0.254,0.352-0.289c0.087-0.021,2.229-0.582,2.58-4.213
			c0.017-0.163,0.11-0.308,0.251-0.389l12.884-7.415c0.83-0.562,2.94-2.394,2.394-3.873c-0.099-0.258,0.033-0.547,0.289-0.646
			l1.44-0.56c0.207-0.079,0.442-0.016,0.581,0.16l1.622,2.072c0.04,0.052,0.069,0.11,0.088,0.172
			c0.056,0.194,1.294,4.798-4.239,8.922c-5.267,3.929-15.243,10.405-15.343,10.47c-0.082,0.054-0.178,0.081-0.274,0.081
			C24.956,33.063,24.916,33.059,24.876,33.049z M31.971,63.574c1.027,0,2.073-0.213,2.75-0.543l0.349,1.337
			c-0.619,0.311-1.858,0.62-3.446,0.62c-3.681,0-6.449-2.324-6.449-6.604c0-4.086,2.769-6.856,6.816-6.856
			c1.627,0,2.653,0.35,3.1,0.582l-0.408,1.375c-0.638-0.311-1.549-0.543-2.633-0.543c-3.061,0-5.094,1.957-5.094,5.385
			C26.955,61.523,28.794,63.574,31.971,63.574z M45.896,53.175h-3.99v11.62h-1.703v-11.62h-3.971v-1.433h9.664V53.175z
			 M52.849,64.795h-1.859l-4.261-13.053h1.819l2.033,6.429c0.563,1.763,1.047,3.353,1.396,4.88h0.039
			c0.368-1.51,0.91-3.156,1.491-4.861l2.207-6.449h1.802L52.849,64.795z"/>
		<path d="M24.699,22.755c0.04-0.119,0.123-0.218,0.233-0.279c11.375-6.268,13.819-8.995,14.333-9.967L22.188,23.123
			c0.069,0.042,0.131,0.093,0.175,0.167c0.145,0.239,0.066,0.549-0.172,0.692L9.578,31.55c-0.081,0.049-0.172,0.072-0.259,0.072
			c-0.168,0-0.331-0.084-0.426-0.235l-1.061,0.659c0.756,0.799,1.597,1.203,2.506,1.203c1.148,0,2.001-0.635,2.009-0.642
			c0.26-0.182,6.029-4.195,8.74-5.461C23.566,25.989,24.687,22.787,24.699,22.755z"/>
		<circle cx="39.348" cy="28.855" r="0.809"/>
		<path d="M43.901,13.954l-1.324-1.691l-0.675,0.263c0.364,2.345-2.788,4.499-2.931,4.596L26.28,24.428
			c-0.365,2.982-1.86,4.163-2.722,4.601l1.61,2.816c2.002-1.306,10.237-6.706,14.841-10.141
			C44.612,18.271,44.042,14.586,43.901,13.954z"/>
		<polygon points="22.143,32.028 21.036,30.184 14.73,33.909 16.035,35.756 		"/>
		<path d="M42.128,29.803c0.012-0.095,0.021-0.193,0.021-0.292c-0.013-0.427-1.043-2.617-2.084-4.607l-4.627,3.857
			c1.895,1.458,4.018,2.935,4.479,3.002l0.064-0.006c0.122-0.014,0.268,0.052,0.364,0.148l3.864,3.865h5.246
			c0.277,0,0.504,0.225,0.504,0.503v2.402h2.729v-8.901h-2.731v2.491c0,0.279-0.225,0.505-0.504,0.505h-4.428
			c-0.136,0-0.263-0.054-0.357-0.148l-2.397-2.4C42.161,30.113,42.107,29.959,42.128,29.803z M39.348,30.674
			c-1.002,0-1.817-0.815-1.817-1.819c0-1.003,0.815-1.817,1.817-1.817c1.003,0,1.817,0.814,1.817,1.817
			C41.165,29.859,40.351,30.674,39.348,30.674z"/>
	</g>
</g>
</svg>