<?xml version="1.0" encoding="iso-8859-1"?>
<!-- Uploaded to: SVG Repo, www.svgrepo.com, Generator: SVG Repo Mixer Tools -->
<!DOCTYPE svg PUBLIC "-//W3C//DTD SVG 1.1//EN" "http://www.w3.org/Graphics/SVG/1.1/DTD/svg11.dtd">
<svg fill="#000000" version="1.1" id="Capa_1" xmlns="http://www.w3.org/2000/svg" xmlns:xlink="http://www.w3.org/1999/xlink" 
	 width="800px" height="800px" viewBox="0 0 89.918 89.918"
	 xml:space="preserve">
<g>
	<g>
		<path d="M58.198,40.195v4.838l14.899,5.474l1.209-1.812C73.165,47.197,68.626,42.137,58.198,40.195z"/>
		<path d="M18.233,48.695l1.21,1.812l14.899-5.474v-4.838C23.913,42.137,19.373,47.197,18.233,48.695z"/>
		<circle cx="46.271" cy="18.08" r="2.239"/>
		<path d="M36.491,23.645c0.352,0.106,0.711,0.204,1.074,0.298c0.111,0.029,0.219,0.061,0.332,0.089
			c0.478,0.118,0.966,0.226,1.461,0.322c0.117,0.023,0.238,0.042,0.357,0.063c0.382,0.071,0.768,0.137,1.158,0.195
			c0.177,0.026,0.356,0.049,0.534,0.072c0.345,0.045,0.69,0.087,1.041,0.123c0.188,0.02,0.377,0.038,0.566,0.055
			c0.365,0.031,0.733,0.056,1.102,0.077c0.17,0.01,0.337,0.022,0.507,0.029c0.535,0.023,1.075,0.038,1.617,0.038
			s1.082-0.015,1.617-0.038c0.17-0.007,0.337-0.02,0.506-0.029c0.369-0.021,0.736-0.045,1.104-0.077
			c0.188-0.017,0.379-0.035,0.566-0.055c0.35-0.036,0.695-0.077,1.04-0.123c0.178-0.023,0.356-0.046,0.534-0.072
			c0.391-0.058,0.775-0.124,1.158-0.195c0.119-0.021,0.24-0.04,0.356-0.063c0.495-0.097,0.983-0.204,1.461-0.322
			c0.112-0.028,0.222-0.06,0.332-0.089c0.363-0.094,0.724-0.192,1.073-0.298c0.16-0.048,0.314-0.1,0.472-0.15
			c0.159-0.051,0.313-0.107,0.47-0.161H35.55c0.156,0.054,0.311,0.109,0.47,0.161C36.176,23.545,36.331,23.596,36.491,23.645z"/>
		<path d="M44.959,0C20.129,0,0,20.129,0,44.959s20.129,44.959,44.959,44.959c24.83,0,44.959-20.129,44.959-44.959
			S69.789,0,44.959,0z M31.812,10.556c0-3.02,10.425-4.792,14.398-4.795c4.034-0.002,14.46,1.773,14.46,4.795v4.216
			c-1.683-1.103-6.685-4.032-12.779-4.505c-0.06-0.005-0.117-0.011-0.176-0.015c-0.486-0.034-0.977-0.056-1.475-0.056
			s-0.987,0.022-1.474,0.056c-0.06,0.004-0.117,0.01-0.177,0.015c-6.095,0.474-11.097,3.403-12.778,4.505L31.812,10.556
			L31.812,10.556z M31.634,15.573c0.695-0.525,3.3-2.167,6.963-3.436c1.326-0.563,2.897-1.01,4.647-1.319
			c0.838-0.197,1.749-0.313,2.685-0.339l0.273-0.018c1.138,0.009,2.308,0.146,3.435,0.438c1.791,0.328,3.399,0.801,4.754,1.401
			c3.434,1.243,5.867,2.784,6.516,3.272c0.172,0.13,0.216,0.372,0.1,0.555c-0.421,0.663-2.156,1.011-3.098,1.155
			c0.945,1.681,1.525,3.555,1.678,5.465c0.006,0.063-0.007,0.124-0.027,0.182c0.025,0.342,0.053,0.686,0.053,1.035
			c0,7.372-5.997,13.369-13.369,13.369s-13.369-5.997-13.369-13.369c0-0.364,0.026-0.723,0.055-1.08
			c0.001-0.007,0.006-0.013,0.007-0.02c0.002-0.012-0.001-0.023,0.002-0.035c0.005-0.022,0.016-0.04,0.024-0.061
			c0-0.007-0.004-0.014-0.003-0.021c0.152-1.909,0.73-3.783,1.676-5.464c-0.939-0.144-2.676-0.492-3.098-1.155
			C31.418,15.946,31.461,15.704,31.634,15.573z M75.395,48.97l-2.672,27.838H46.686h-0.832H19.818L17.132,48.83l0.074-0.119
			c0,0,0.013-0.02,0.017-0.027l-0.004-0.007l0.166-0.233h0.001l0.348-0.494l0.015,0.021c1.439-1.795,6.234-6.721,16.594-8.613
			v-0.009l0.345-0.06l0.487-0.084v0.015c3.429-0.556,7.154-0.749,11.096-0.552c3.941-0.198,7.666-0.004,11.095,0.552v-0.015
			l0.487,0.084l0.346,0.06v0.009c10.357,1.893,15.154,6.818,16.594,8.613l0.016-0.021l0.348,0.494h0.001l0.166,0.233l-0.005,0.007
			c0.005,0.008,0.018,0.027,0.018,0.027l0.074,0.119L75.395,48.97z"/>
		<path d="M47.58,47.959l1.077-0.756c1.11-0.781,1.772-2.053,1.772-3.404c0-2.294-1.867-4.161-4.16-4.161
			c-2.294,0-4.161,1.867-4.161,4.161c0,1.352,0.663,2.624,1.773,3.404l1.077,0.756h-2.736L40.61,73.896h5.243h0.833h5.242
			l-1.611-25.938H47.58z"/>
	</g>
</g>
</svg>